<svg xmlns="http://www.w3.org/2000/svg" xmlns:xlink="http://www.w3.org/1999/xlink" width="220" zoomAndPan="magnify" viewBox="0 0 165 82.499998" height="110" preserveAspectRatio="xMidYMid meet" version="1.0"><defs><clipPath id="id1"><path d="M 0.496094 0 L 164.503906 0 L 164.503906 82.003906 L 0.496094 82.003906 Z M 0.496094 0 " clip-rule="nonzero"/></clipPath><clipPath id="id2"><path d="M 72 43 L 92 43 L 92 67.363281 L 72 67.363281 Z M 72 43 " clip-rule="nonzero"/></clipPath><clipPath id="id3"><path d="M 137 43 L 156.300781 43 L 156.300781 67.363281 L 137 67.363281 Z M 137 43 " clip-rule="nonzero"/></clipPath><clipPath id="id4"><path d="M 12 30 L 52 30 L 52 67.363281 L 12 67.363281 Z M 12 30 " clip-rule="nonzero"/></clipPath><clipPath id="id5"><path d="M 8.699219 14.433594 L 39 14.433594 L 39 57 L 8.699219 57 Z M 8.699219 14.433594 " clip-rule="nonzero"/></clipPath></defs><g clip-path="url(#id1)"><path fill="#ffffff" d="M 0.496094 0 L 164.503906 0 L 164.503906 89.457031 L 0.496094 89.457031 Z M 0.496094 0 " fill-opacity="1" fill-rule="nonzero"/><path fill="#ffffff" d="M 0.496094 0 L 164.503906 0 L 164.503906 82.003906 L 0.496094 82.003906 Z M 0.496094 0 " fill-opacity="1" fill-rule="nonzero"/><path fill="#ffffff" d="M 0.496094 0 L 164.503906 0 L 164.503906 82.003906 L 0.496094 82.003906 Z M 0.496094 0 " fill-opacity="1" fill-rule="nonzero"/></g><path fill="#55565b" d="M 71.714844 56.433594 C 71.765625 57.28125 71.617188 58.089844 71.265625 58.863281 C 70.917969 59.636719 70.40625 60.285156 69.738281 60.808594 C 68.269531 61.839844 66.636719 62.308594 64.839844 62.210938 C 63.4375 62.21875 62.074219 61.988281 60.75 61.523438 C 59.425781 61.058594 58.21875 60.386719 57.128906 59.507812 L 59.308594 56.167969 C 61.277344 57.589844 63.164062 58.304688 64.976562 58.304688 C 66.40625 58.304688 67.121094 57.859375 67.121094 56.96875 L 67.121094 56.902344 C 67.121094 56.410156 66.753906 56 66.015625 55.664062 C 65.746094 55.554688 64.875 55.277344 63.398438 54.828125 C 59.824219 53.785156 58.035156 51.992188 58.035156 49.453125 L 58.035156 49.386719 C 58.007812 48.570312 58.164062 47.792969 58.503906 47.050781 C 58.847656 46.308594 59.339844 45.683594 59.980469 45.175781 C 61.34375 44.125 62.886719 43.636719 64.605469 43.707031 C 67.058594 43.699219 69.292969 44.390625 71.3125 45.777344 L 69.367188 49.285156 C 67.46875 48.171875 65.847656 47.617188 64.507812 47.613281 C 63.253906 47.613281 62.628906 48.027344 62.628906 48.851562 L 62.628906 48.917969 C 62.628906 49.363281 62.996094 49.765625 63.734375 50.121094 C 64.027344 50.253906 64.875 50.566406 66.285156 51.054688 C 67.59375 51.441406 68.8125 52.023438 69.9375 52.792969 C 70.507812 53.210938 70.945312 53.734375 71.261719 54.367188 C 71.574219 54.996094 71.726562 55.664062 71.714844 56.367188 Z M 71.714844 56.433594 " fill-opacity="1" fill-rule="nonzero"/><g clip-path="url(#id2)"><path fill="#55565b" d="M 84.109375 62.3125 C 83.414062 64.160156 82.644531 65.453125 81.792969 66.1875 C 80.742188 67.011719 79.546875 67.390625 78.207031 67.324219 C 76.582031 67.328125 75.074219 66.914062 73.679688 66.085938 L 75.390625 62.414062 C 76.050781 62.847656 76.777344 63.082031 77.570312 63.113281 C 77.960938 63.121094 78.316406 63.019531 78.640625 62.804688 C 78.96875 62.59375 79.203125 62.304688 79.347656 61.945312 L 72.304688 43.972656 L 77.703125 43.972656 L 81.792969 56.167969 L 85.71875 43.972656 L 91.015625 43.972656 Z M 84.109375 62.3125 " fill-opacity="1" fill-rule="nonzero"/></g><path fill="#55565b" d="M 105.371094 56.433594 C 105.421875 57.28125 105.273438 58.089844 104.921875 58.863281 C 104.574219 59.636719 104.0625 60.285156 103.394531 60.808594 C 101.925781 61.839844 100.292969 62.308594 98.5 62.210938 C 97.09375 62.21875 95.730469 61.988281 94.40625 61.523438 C 93.085938 61.058594 91.878906 60.386719 90.789062 59.507812 L 92.964844 56.167969 C 94.933594 57.589844 96.820312 58.304688 98.632812 58.304688 C 100.0625 58.304688 100.777344 57.859375 100.777344 56.96875 L 100.777344 56.902344 C 100.777344 56.410156 100.410156 56 99.671875 55.664062 C 99.402344 55.554688 98.53125 55.277344 97.058594 54.828125 C 93.480469 53.785156 91.691406 51.992188 91.691406 49.453125 L 91.691406 49.386719 C 91.664062 48.570312 91.820312 47.792969 92.160156 47.050781 C 92.503906 46.308594 92.996094 45.683594 93.636719 45.175781 C 95 44.125 96.542969 43.636719 98.265625 43.707031 C 100.714844 43.699219 102.949219 44.390625 104.96875 45.777344 L 103.023438 49.285156 C 101.125 48.171875 99.503906 47.617188 98.164062 47.613281 C 96.910156 47.613281 96.285156 48.027344 96.285156 48.851562 L 96.285156 48.917969 C 96.285156 49.363281 96.65625 49.765625 97.390625 50.121094 C 97.683594 50.253906 98.53125 50.566406 99.941406 51.054688 C 101.25 51.441406 102.46875 52.023438 103.59375 52.792969 C 104.164062 53.210938 104.601562 53.734375 104.917969 54.367188 C 105.230469 54.996094 105.382812 55.664062 105.371094 56.367188 Z M 105.371094 56.433594 " fill-opacity="1" fill-rule="nonzero"/><path fill="#55565b" d="M 120.921875 61.878906 L 120.921875 60.308594 C 120.144531 60.964844 119.269531 61.457031 118.304688 61.789062 C 117.335938 62.117188 116.34375 62.257812 115.324219 62.210938 C 114.253906 62.230469 113.226562 62.035156 112.238281 61.621094 C 111.25 61.210938 110.390625 60.617188 109.65625 59.839844 C 107.980469 58.105469 107.140625 55.808594 107.140625 52.960938 L 107.140625 52.890625 C 107.140625 50.042969 107.96875 47.75 109.625 46.011719 C 110.363281 45.234375 111.230469 44.640625 112.222656 44.226562 C 113.214844 43.8125 114.246094 43.617188 115.324219 43.640625 C 117.378906 43.566406 119.246094 44.125 120.921875 45.308594 L 120.921875 37.492188 L 126.019531 37.492188 L 126.019531 61.878906 Z M 120.988281 52.890625 C 121.039062 51.53125 120.617188 50.339844 119.714844 49.320312 C 119.328125 48.875 118.867188 48.53125 118.324219 48.292969 C 117.785156 48.054688 117.222656 47.9375 116.628906 47.949219 C 116.042969 47.9375 115.480469 48.046875 114.941406 48.28125 C 114.402344 48.515625 113.9375 48.847656 113.546875 49.285156 C 113.101562 49.777344 112.765625 50.335938 112.539062 50.960938 C 112.3125 51.585938 112.210938 52.230469 112.238281 52.890625 L 112.238281 52.960938 C 112.1875 54.328125 112.625 55.519531 113.546875 56.535156 C 113.742188 56.75 113.957031 56.941406 114.191406 57.113281 C 114.425781 57.28125 114.675781 57.425781 114.941406 57.546875 C 115.207031 57.664062 115.484375 57.753906 115.769531 57.8125 C 116.050781 57.875 116.339844 57.902344 116.628906 57.902344 C 116.921875 57.902344 117.210938 57.875 117.492188 57.8125 C 117.777344 57.753906 118.054688 57.664062 118.320312 57.546875 C 118.585938 57.425781 118.835938 57.28125 119.070312 57.113281 C 119.304688 56.941406 119.519531 56.75 119.714844 56.535156 C 120.617188 55.511719 121.039062 54.320312 120.988281 52.960938 Z M 120.988281 52.890625 " fill-opacity="1" fill-rule="nonzero"/><path fill="#55565b" d="M 129.101562 42.003906 L 129.101562 37.492188 L 134.46875 37.492188 L 134.46875 42.003906 Z M 129.238281 61.878906 L 129.238281 43.972656 L 134.332031 43.972656 L 134.332031 61.878906 Z M 129.238281 61.878906 " fill-opacity="1" fill-rule="nonzero"/><g clip-path="url(#id3)"><path fill="#55565b" d="M 156.300781 57.835938 C 156.300781 61.15625 155.464844 63.570312 153.789062 65.085938 C 152.179688 66.554688 149.675781 67.289062 146.277344 67.289062 C 143.472656 67.328125 140.824219 66.707031 138.332031 65.417969 L 140.074219 61.277344 C 141.953125 62.359375 143.976562 62.90625 146.144531 62.914062 C 149.5625 62.914062 151.273438 61.511719 151.273438 58.703125 L 151.273438 58.503906 C 150.4375 59.148438 149.511719 59.636719 148.503906 59.964844 C 147.5 60.289062 146.464844 60.4375 145.40625 60.410156 C 144.371094 60.4375 143.367188 60.261719 142.402344 59.882812 C 141.4375 59.507812 140.582031 58.957031 139.839844 58.238281 C 139.019531 57.421875 138.402344 56.476562 137.980469 55.402344 C 137.5625 54.324219 137.375 53.210938 137.425781 52.058594 L 137.425781 51.992188 C 137.375 50.835938 137.566406 49.71875 137.992188 48.640625 C 138.417969 47.566406 139.046875 46.621094 139.875 45.8125 C 140.609375 45.09375 141.460938 44.542969 142.417969 44.167969 C 143.378906 43.789062 144.375 43.613281 145.40625 43.640625 C 147.515625 43.585938 149.449219 44.144531 151.207031 45.308594 L 151.207031 43.972656 L 156.300781 43.972656 Z M 151.273438 51.992188 C 151.289062 51.425781 151.1875 50.882812 150.964844 50.367188 C 150.742188 49.847656 150.417969 49.398438 150 49.019531 C 149.566406 48.640625 149.085938 48.351562 148.546875 48.152344 C 148.011719 47.949219 147.457031 47.847656 146.882812 47.847656 C 146.308594 47.847656 145.753906 47.949219 145.214844 48.152344 C 144.679688 48.351562 144.195312 48.640625 143.761719 49.019531 C 143.351562 49.402344 143.039062 49.851562 142.820312 50.371094 C 142.605469 50.890625 142.507812 51.429688 142.523438 51.992188 L 142.523438 52.058594 C 142.503906 52.625 142.601562 53.167969 142.820312 53.695312 C 143.035156 54.21875 143.351562 54.675781 143.761719 55.0625 C 144.648438 55.859375 145.6875 56.238281 146.882812 56.199219 C 148.082031 56.238281 149.121094 55.847656 150 55.03125 C 150.417969 54.652344 150.742188 54.203125 150.964844 53.683594 C 151.1875 53.164062 151.289062 52.621094 151.273438 52.058594 Z M 151.273438 51.992188 " fill-opacity="1" fill-rule="nonzero"/></g><path fill="#00abc7" d="M 35.757812 61.792969 C 34.605469 61.804688 33.46875 61.664062 32.355469 61.371094 C 31.238281 61.078125 30.183594 60.640625 29.1875 60.0625 C 28.191406 59.480469 27.289062 58.78125 26.484375 57.957031 C 25.679688 57.132812 25 56.21875 24.441406 55.210938 C 23.445312 53.492188 20.878906 48.933594 20.75 48.703125 C 20.636719 48.503906 20.566406 48.289062 20.539062 48.0625 C 20.515625 47.835938 20.53125 47.613281 20.59375 47.394531 C 20.660156 47.171875 20.761719 46.972656 20.902344 46.792969 C 21.046875 46.613281 21.21875 46.46875 21.417969 46.359375 C 21.617188 46.246094 21.832031 46.179688 22.0625 46.152344 C 22.289062 46.125 22.511719 46.144531 22.734375 46.207031 C 22.957031 46.269531 23.15625 46.371094 23.335938 46.511719 C 23.515625 46.65625 23.660156 46.824219 23.773438 47.023438 C 23.804688 47.082031 26.457031 51.789062 27.441406 53.488281 C 29.878906 57.695312 34.34375 59.300781 39.386719 57.785156 C 39.605469 57.71875 39.832031 57.695312 40.058594 57.71875 C 40.285156 57.742188 40.503906 57.808594 40.703125 57.914062 C 40.90625 58.023438 41.082031 58.164062 41.226562 58.34375 C 41.371094 58.519531 41.476562 58.71875 41.542969 58.9375 C 41.609375 59.15625 41.632812 59.378906 41.609375 59.605469 C 41.585938 59.832031 41.519531 60.046875 41.410156 60.25 C 41.304688 60.449219 41.160156 60.625 40.984375 60.769531 C 40.804688 60.914062 40.605469 61.019531 40.386719 61.085938 C 38.878906 61.550781 37.335938 61.785156 35.757812 61.792969 Z M 35.757812 61.792969 " fill-opacity="1" fill-rule="nonzero"/><g clip-path="url(#id4)"><path fill="#00abc7" d="M 36.132812 67.265625 C 29.535156 67.265625 23.371094 64.1875 20.273438 58.839844 L 13.1875 46.613281 C 13.074219 46.414062 13 46.203125 12.972656 45.976562 C 12.941406 45.75 12.957031 45.527344 13.015625 45.304688 C 13.074219 45.082031 13.175781 44.882812 13.3125 44.699219 C 13.453125 44.519531 13.621094 44.371094 13.820312 44.257812 L 18.648438 41.480469 C 18.847656 41.367188 19.058594 41.292969 19.289062 41.265625 C 19.515625 41.234375 19.738281 41.25 19.960938 41.308594 C 20.183594 41.367188 20.386719 41.464844 20.570312 41.605469 C 20.75 41.746094 20.898438 41.914062 21.015625 42.113281 C 21.128906 42.308594 21.203125 42.523438 21.230469 42.75 C 21.261719 42.976562 21.246094 43.199219 21.1875 43.421875 C 21.128906 43.644531 21.027344 43.84375 20.886719 44.027344 C 20.746094 44.207031 20.578125 44.355469 20.378906 44.46875 L 17.050781 46.382812 L 23.269531 57.113281 C 26.644531 62.933594 34.660156 65.359375 42.015625 62.828125 C 47.894531 57.746094 49.792969 49.617188 46.421875 43.796875 L 40.46875 33.523438 C 40.351562 33.328125 40.28125 33.113281 40.25 32.886719 C 40.21875 32.660156 40.230469 32.4375 40.292969 32.214844 C 40.351562 31.992188 40.449219 31.792969 40.589844 31.609375 C 40.730469 31.425781 40.898438 31.277344 41.097656 31.164062 C 41.296875 31.050781 41.511719 30.976562 41.738281 30.949219 C 41.96875 30.917969 42.191406 30.933594 42.414062 30.992188 C 42.636719 31.050781 42.839844 31.152344 43.023438 31.292969 C 43.203125 31.433594 43.351562 31.601562 43.464844 31.800781 L 49.421875 42.074219 C 53.664062 49.394531 51.335938 59.539062 44.007812 65.667969 C 43.851562 65.796875 43.679688 65.898438 43.488281 65.96875 C 41.113281 66.832031 38.660156 67.261719 36.132812 67.265625 Z M 42.894531 64.347656 Z M 42.894531 64.347656 " fill-opacity="1" fill-rule="nonzero"/></g><g clip-path="url(#id5)"><path fill="#00abc7" d="M 35.613281 56.199219 C 32.878906 56.199219 30.5625 54.386719 29.382812 52.355469 L 8.929688 17.058594 C 8.816406 16.859375 8.742188 16.648438 8.714844 16.421875 C 8.683594 16.195312 8.699219 15.972656 8.757812 15.75 C 8.816406 15.53125 8.917969 15.332031 9.058594 15.148438 C 9.195312 14.96875 9.367188 14.820312 9.566406 14.707031 C 9.761719 14.589844 9.976562 14.519531 10.203125 14.488281 C 10.429688 14.460938 10.65625 14.472656 10.875 14.53125 C 11.097656 14.59375 11.300781 14.691406 11.480469 14.828125 C 11.664062 14.96875 11.8125 15.136719 11.929688 15.335938 L 32.382812 50.628906 C 32.941406 51.59375 34.523438 53.246094 36.511719 52.605469 C 36.730469 52.535156 36.953125 52.507812 37.183594 52.527344 C 37.410156 52.546875 37.628906 52.609375 37.832031 52.710938 C 38.035156 52.816406 38.214844 52.957031 38.363281 53.128906 C 38.511719 53.304688 38.621094 53.5 38.691406 53.71875 C 38.761719 53.933594 38.785156 54.160156 38.769531 54.386719 C 38.75 54.613281 38.6875 54.828125 38.582031 55.035156 C 38.480469 55.238281 38.339844 55.414062 38.164062 55.5625 C 37.988281 55.710938 37.792969 55.816406 37.574219 55.886719 C 36.9375 56.09375 36.285156 56.199219 35.613281 56.199219 Z M 35.613281 56.199219 " fill-opacity="1" fill-rule="nonzero"/></g><path fill="#00abc7" d="M 31.183594 37.988281 C 30.875 37.988281 30.585938 37.910156 30.320312 37.753906 C 30.050781 37.601562 29.839844 37.390625 29.683594 37.125 L 23.945312 27.21875 C 23.832031 27.023438 23.757812 26.808594 23.730469 26.582031 C 23.699219 26.355469 23.714844 26.132812 23.773438 25.914062 C 23.835938 25.691406 23.933594 25.492188 24.074219 25.308594 C 24.214844 25.128906 24.382812 24.980469 24.582031 24.867188 C 24.78125 24.753906 24.992188 24.679688 25.21875 24.648438 C 25.445312 24.621094 25.671875 24.636719 25.894531 24.695312 C 26.113281 24.753906 26.316406 24.851562 26.5 24.992188 C 26.679688 25.128906 26.828125 25.296875 26.945312 25.496094 L 31.816406 33.90625 L 34.917969 32.121094 C 35.117188 32.007812 35.332031 31.9375 35.558594 31.90625 C 35.785156 31.878906 36.007812 31.894531 36.230469 31.953125 C 36.453125 32.011719 36.652344 32.109375 36.835938 32.25 C 37.015625 32.390625 37.164062 32.558594 37.28125 32.753906 C 37.394531 32.953125 37.46875 33.164062 37.496094 33.390625 C 37.527344 33.617188 37.511719 33.84375 37.453125 34.0625 C 37.394531 34.285156 37.296875 34.484375 37.15625 34.664062 C 37.015625 34.847656 36.847656 34.996094 36.648438 35.109375 L 32.050781 37.753906 C 31.78125 37.910156 31.492188 37.988281 31.183594 37.988281 Z M 31.183594 37.988281 " fill-opacity="1" fill-rule="nonzero"/></svg>