<svg xmlns="http://www.w3.org/2000/svg" xmlns:xlink="http://www.w3.org/1999/xlink" width="220" zoomAndPan="magnify" viewBox="0 0 165 82.499998" height="110" preserveAspectRatio="xMidYMid meet" version="1.0"><defs><clipPath id="id1"><path d="M 0.496094 0 L 164.503906 0 L 164.503906 82.003906 L 0.496094 82.003906 Z M 0.496094 0 " clip-rule="nonzero"/></clipPath><clipPath id="id2"><path d="M 32 8.199219 L 133 8.199219 L 133 43 L 32 43 Z M 32 8.199219 " clip-rule="nonzero"/></clipPath><clipPath id="id3"><path d="M 27.832031 51 L 128 51 L 128 73.800781 L 27.832031 73.800781 Z M 27.832031 51 " clip-rule="nonzero"/></clipPath><clipPath id="id4"><path d="M 116 49 L 137.417969 49 L 137.417969 70 L 116 70 Z M 116 49 " clip-rule="nonzero"/></clipPath><clipPath id="id5"><path d="M 32 8.199219 L 133 8.199219 L 133 43 L 32 43 Z M 32 8.199219 " clip-rule="nonzero"/></clipPath><clipPath id="id6"><path d="M 27.832031 51 L 128 51 L 128 73.800781 L 27.832031 73.800781 Z M 27.832031 51 " clip-rule="nonzero"/></clipPath><clipPath id="id7"><path d="M 116 49 L 137.417969 49 L 137.417969 70 L 116 70 Z M 116 49 " clip-rule="nonzero"/></clipPath></defs><g clip-path="url(#id1)"><path fill="#ffffff" d="M 0.496094 0 L 164.503906 0 L 164.503906 89.457031 L 0.496094 89.457031 Z M 0.496094 0 " fill-opacity="1" fill-rule="nonzero"/><path fill="#ffffff" d="M 0.496094 0 L 164.503906 0 L 164.503906 82.003906 L 0.496094 82.003906 Z M 0.496094 0 " fill-opacity="1" fill-rule="nonzero"/><path fill="#ffffff" d="M 0.496094 0 L 164.503906 0 L 164.503906 82.003906 L 0.496094 82.003906 Z M 0.496094 0 " fill-opacity="1" fill-rule="nonzero"/><path fill="#ffffff" d="M 0.496094 0 L 164.503906 0 L 164.503906 82.003906 L 0.496094 82.003906 Z M 0.496094 0 " fill-opacity="1" fill-rule="nonzero"/></g><g clip-path="url(#id2)"><path fill="#252f3e" d="M 58.710938 31.925781 C 58.675781 33.027344 58.816406 34.105469 59.128906 35.164062 C 59.449219 36.0625 59.84375 36.929688 60.3125 37.765625 C 60.472656 38.019531 60.5625 38.296875 60.574219 38.597656 C 60.527344 39.074219 60.292969 39.429688 59.875 39.667969 L 57.683594 41.199219 C 57.394531 41.402344 57.070312 41.511719 56.71875 41.527344 C 56.289062 41.511719 55.929688 41.34375 55.644531 41.023438 C 55.132812 40.519531 54.695312 39.957031 54.328125 39.339844 C 53.964844 38.726562 53.589844 38 53.210938 37.152344 C 52.570312 37.953125 51.84375 38.667969 51.039062 39.300781 C 50.234375 39.9375 49.367188 40.472656 48.4375 40.90625 C 47.507812 41.34375 46.542969 41.667969 45.539062 41.882812 C 44.535156 42.097656 43.519531 42.199219 42.492188 42.183594 C 41.15625 42.253906 39.855469 42.066406 38.59375 41.613281 C 37.328125 41.164062 36.203125 40.484375 35.21875 39.582031 C 34.300781 38.652344 33.613281 37.578125 33.148438 36.359375 C 32.679688 35.144531 32.480469 33.882812 32.542969 32.582031 C 32.484375 31.167969 32.734375 29.804688 33.296875 28.503906 C 33.859375 27.199219 34.671875 26.082031 35.742188 25.148438 C 37.011719 24.152344 38.417969 23.410156 39.957031 22.925781 C 41.496094 22.4375 43.074219 22.238281 44.6875 22.328125 C 45.976562 22.332031 47.265625 22.425781 48.542969 22.613281 C 49.886719 22.800781 51.28125 23.0625 52.730469 23.398438 L 52.730469 20.730469 C 52.835938 19.6875 52.738281 18.660156 52.4375 17.652344 C 52.140625 16.644531 51.660156 15.734375 50.996094 14.914062 C 50.152344 14.265625 49.214844 13.796875 48.191406 13.503906 C 47.164062 13.214844 46.121094 13.125 45.058594 13.230469 C 43.730469 13.238281 42.425781 13.398438 41.136719 13.710938 C 39.796875 14.03125 38.488281 14.449219 37.210938 14.960938 C 36.800781 15.148438 36.375 15.308594 35.941406 15.441406 L 35.371094 15.441406 C 34.859375 15.441406 34.605469 15.0625 34.605469 14.304688 L 34.605469 12.574219 C 34.570312 12.128906 34.660156 11.707031 34.867188 11.308594 C 35.144531 10.964844 35.488281 10.710938 35.898438 10.542969 C 37.367188 9.839844 38.894531 9.292969 40.476562 8.902344 C 42.339844 8.425781 44.230469 8.191406 46.152344 8.203125 C 47.875 8.050781 49.5625 8.230469 51.210938 8.742188 C 52.863281 9.253906 54.355469 10.054688 55.6875 11.15625 C 56.78125 12.375 57.59375 13.765625 58.117188 15.316406 C 58.644531 16.871094 58.839844 18.464844 58.710938 20.097656 Z M 43.917969 37.460938 C 45.210938 37.441406 46.46875 37.214844 47.6875 36.78125 C 49.046875 36.3125 50.195312 35.53125 51.128906 34.441406 C 51.703125 33.804688 52.109375 33.074219 52.355469 32.253906 C 52.609375 31.222656 52.726562 30.171875 52.707031 29.105469 L 52.707031 27.574219 C 51.601562 27.3125 50.484375 27.105469 49.355469 26.964844 C 48.21875 26.820312 47.078125 26.746094 45.933594 26.746094 C 43.957031 26.597656 42.152344 27.085938 40.519531 28.210938 C 39.941406 28.71875 39.5 29.328125 39.199219 30.039062 C 38.894531 30.746094 38.757812 31.484375 38.789062 32.253906 C 38.738281 32.960938 38.828125 33.648438 39.058594 34.316406 C 39.292969 34.984375 39.648438 35.582031 40.125 36.105469 C 40.644531 36.570312 41.230469 36.921875 41.886719 37.15625 C 42.542969 37.394531 43.222656 37.492188 43.917969 37.460938 Z M 73.179688 41.394531 C 72.667969 41.441406 72.203125 41.324219 71.773438 41.046875 C 71.378906 40.648438 71.125 40.171875 71.007812 39.625 L 62.480469 11.503906 C 62.316406 11.027344 62.207031 10.539062 62.152344 10.039062 C 62.132812 9.914062 62.144531 9.792969 62.183594 9.675781 C 62.222656 9.554688 62.285156 9.453125 62.375 9.363281 C 62.464844 9.277344 62.566406 9.210938 62.6875 9.171875 C 62.808594 9.132812 62.929688 9.125 63.050781 9.144531 L 66.625 9.144531 C 67.140625 9.089844 67.617188 9.207031 68.050781 9.492188 C 68.417969 9.902344 68.660156 10.375 68.773438 10.914062 L 74.886719 34.964844 L 80.5625 10.914062 C 80.652344 10.371094 80.894531 9.902344 81.289062 9.515625 C 81.738281 9.238281 82.226562 9.121094 82.753906 9.164062 L 85.691406 9.164062 C 86.21875 9.121094 86.710938 9.238281 87.160156 9.515625 C 87.550781 9.914062 87.785156 10.386719 87.863281 10.9375 L 93.582031 35.292969 L 99.894531 10.9375 C 100.011719 10.394531 100.261719 9.921875 100.640625 9.515625 C 101.074219 9.230469 101.546875 9.113281 102.066406 9.164062 L 105.441406 9.164062 C 105.5625 9.144531 105.6875 9.15625 105.804688 9.195312 C 105.925781 9.234375 106.027344 9.296875 106.117188 9.386719 C 106.207031 9.476562 106.269531 9.578125 106.308594 9.699219 C 106.347656 9.816406 106.359375 9.9375 106.339844 10.0625 C 106.355469 10.25 106.355469 10.441406 106.339844 10.628906 C 106.269531 10.933594 106.179688 11.234375 106.074219 11.527344 L 97.308594 39.644531 C 97.195312 40.195312 96.9375 40.667969 96.542969 41.066406 C 96.113281 41.347656 95.648438 41.464844 95.140625 41.417969 L 91.9375 41.417969 C 91.402344 41.472656 90.914062 41.347656 90.46875 41.046875 C 90.085938 40.628906 89.851562 40.140625 89.769531 39.582031 L 84.09375 16.160156 L 78.480469 39.558594 C 78.398438 40.117188 78.164062 40.605469 77.78125 41.023438 C 77.335938 41.328125 76.847656 41.449219 76.3125 41.394531 Z M 119.992188 42.355469 C 118.097656 42.359375 116.226562 42.148438 114.382812 41.722656 C 112.910156 41.429688 111.507812 40.941406 110.175781 40.257812 C 109.765625 40.085938 109.441406 39.8125 109.195312 39.445312 C 108.953125 39.074219 108.832031 38.667969 108.835938 38.222656 L 108.835938 36.386719 C 108.835938 35.628906 109.113281 35.25 109.671875 35.25 C 109.90625 35.253906 110.128906 35.296875 110.347656 35.382812 L 111.269531 35.753906 C 112.558594 36.324219 113.898438 36.746094 115.28125 37.023438 C 116.726562 37.316406 118.1875 37.464844 119.664062 37.460938 C 121.554688 37.570312 123.332031 37.171875 124.988281 36.257812 C 125.59375 35.898438 126.066406 35.410156 126.402344 34.796875 C 126.742188 34.183594 126.898438 33.523438 126.875 32.824219 C 126.902344 31.839844 126.574219 30.996094 125.890625 30.289062 C 124.765625 29.351562 123.496094 28.707031 122.074219 28.363281 L 116.792969 26.703125 C 114.515625 26.070312 112.625 24.84375 111.117188 23.027344 C 109.910156 21.476562 109.300781 19.722656 109.296875 17.757812 C 109.265625 16.324219 109.59375 14.972656 110.285156 13.710938 C 110.945312 12.535156 111.816406 11.535156 112.890625 10.71875 C 114.019531 9.863281 115.261719 9.234375 116.617188 8.835938 C 118.113281 8.40625 119.640625 8.195312 121.199219 8.203125 C 122.019531 8.203125 122.839844 8.253906 123.652344 8.355469 C 124.484375 8.457031 125.273438 8.597656 126.019531 8.769531 C 126.765625 8.945312 127.460938 9.136719 128.101562 9.339844 C 128.632812 9.503906 129.144531 9.71875 129.636719 9.972656 C 130.054688 10.199219 130.414062 10.5 130.710938 10.871094 C 130.949219 11.238281 131.058594 11.636719 131.039062 12.074219 L 131.039062 13.800781 C 131.039062 14.558594 130.761719 14.9375 130.207031 14.9375 C 129.710938 14.882812 129.242188 14.734375 128.804688 14.5 C 126.566406 13.53125 124.230469 13.0625 121.789062 13.101562 C 120.082031 13.011719 118.46875 13.355469 116.945312 14.128906 C 116.375 14.460938 115.933594 14.917969 115.621094 15.5 C 115.308594 16.085938 115.175781 16.707031 115.214844 17.363281 C 115.191406 18.382812 115.550781 19.242188 116.289062 19.945312 C 117.484375 20.898438 118.820312 21.570312 120.300781 21.957031 L 125.472656 23.507812 C 127.714844 24.089844 129.59375 25.257812 131.105469 27.007812 C 132.300781 28.554688 132.871094 30.304688 132.816406 32.253906 C 132.835938 33.738281 132.511719 35.144531 131.851562 36.476562 C 131.203125 37.742188 130.320312 38.8125 129.199219 39.691406 C 127.980469 40.628906 126.628906 41.308594 125.144531 41.722656 C 123.457031 42.183594 121.742188 42.394531 119.992188 42.355469 Z M 119.992188 42.355469 " fill-opacity="1" fill-rule="nonzero"/></g><g clip-path="url(#id3)"><path fill="#ff9900" d="M 126.875 60.265625 C 114.886719 69.097656 97.484375 73.800781 82.625 73.800781 C 77.65625 73.832031 72.726562 73.410156 67.835938 72.527344 C 62.945312 71.648438 58.179688 70.328125 53.535156 68.5625 C 48.890625 66.800781 44.449219 64.625 40.207031 62.039062 C 35.96875 59.453125 32.003906 56.5 28.3125 53.179688 C 27.195312 52.175781 28.183594 50.796875 29.539062 51.5625 C 33.652344 53.910156 37.898438 55.980469 42.28125 57.773438 C 46.664062 59.570312 51.144531 61.074219 55.722656 62.285156 C 60.300781 63.496094 64.9375 64.410156 69.636719 65.019531 C 74.332031 65.628906 79.050781 65.933594 83.785156 65.929688 C 90.890625 65.890625 97.921875 65.160156 104.882812 63.734375 C 111.84375 62.3125 118.597656 60.222656 125.144531 57.464844 C 127.160156 56.613281 128.871094 58.800781 126.875 60.265625 Z M 126.875 60.265625 " fill-opacity="1" fill-rule="evenodd"/></g><g clip-path="url(#id4)"><path fill="#ff9900" d="M 131.871094 54.582031 C 130.339844 52.613281 121.722656 53.660156 117.867188 54.121094 C 116.707031 54.253906 116.507812 53.246094 117.558594 52.503906 C 124.421875 47.691406 135.6875 49.070312 136.980469 50.6875 C 138.273438 52.304688 136.628906 63.566406 130.207031 68.945312 C 129.21875 69.777344 128.277344 69.339844 128.714844 68.246094 C 130.164062 64.617188 133.40625 56.546875 131.871094 54.582031 Z M 131.871094 54.582031 " fill-opacity="1" fill-rule="evenodd"/></g><g clip-path="url(#id5)"><path fill="#252f3e" d="M 58.710938 31.925781 C 58.675781 33.027344 58.816406 34.105469 59.128906 35.164062 C 59.449219 36.0625 59.84375 36.929688 60.3125 37.765625 C 60.472656 38.019531 60.5625 38.296875 60.574219 38.597656 C 60.527344 39.074219 60.292969 39.429688 59.875 39.667969 L 57.683594 41.199219 C 57.394531 41.402344 57.070312 41.511719 56.71875 41.527344 C 56.289062 41.511719 55.929688 41.34375 55.644531 41.023438 C 55.132812 40.519531 54.695312 39.957031 54.328125 39.339844 C 53.964844 38.726562 53.589844 38 53.210938 37.152344 C 52.570312 37.953125 51.84375 38.667969 51.039062 39.300781 C 50.234375 39.9375 49.367188 40.472656 48.4375 40.90625 C 47.507812 41.34375 46.542969 41.667969 45.539062 41.882812 C 44.535156 42.097656 43.519531 42.199219 42.492188 42.183594 C 41.15625 42.253906 39.855469 42.066406 38.59375 41.613281 C 37.328125 41.164062 36.203125 40.484375 35.21875 39.582031 C 34.300781 38.652344 33.613281 37.578125 33.148438 36.359375 C 32.679688 35.144531 32.480469 33.882812 32.542969 32.582031 C 32.484375 31.167969 32.734375 29.804688 33.296875 28.503906 C 33.859375 27.199219 34.671875 26.082031 35.742188 25.148438 C 37.011719 24.152344 38.417969 23.410156 39.957031 22.925781 C 41.496094 22.4375 43.074219 22.238281 44.6875 22.328125 C 45.976562 22.332031 47.265625 22.425781 48.542969 22.613281 C 49.886719 22.800781 51.28125 23.0625 52.730469 23.398438 L 52.730469 20.730469 C 52.835938 19.6875 52.738281 18.660156 52.4375 17.652344 C 52.140625 16.644531 51.660156 15.734375 50.996094 14.914062 C 50.152344 14.265625 49.214844 13.796875 48.191406 13.503906 C 47.164062 13.214844 46.121094 13.125 45.058594 13.230469 C 43.730469 13.238281 42.425781 13.398438 41.136719 13.710938 C 39.796875 14.03125 38.488281 14.449219 37.210938 14.960938 C 36.800781 15.148438 36.375 15.308594 35.941406 15.441406 L 35.371094 15.441406 C 34.859375 15.441406 34.605469 15.0625 34.605469 14.304688 L 34.605469 12.574219 C 34.570312 12.128906 34.660156 11.707031 34.867188 11.308594 C 35.144531 10.964844 35.488281 10.710938 35.898438 10.542969 C 37.367188 9.839844 38.894531 9.292969 40.476562 8.902344 C 42.339844 8.425781 44.230469 8.191406 46.152344 8.203125 C 47.875 8.050781 49.5625 8.230469 51.210938 8.742188 C 52.863281 9.253906 54.355469 10.054688 55.6875 11.15625 C 56.78125 12.375 57.59375 13.765625 58.117188 15.316406 C 58.644531 16.871094 58.839844 18.464844 58.710938 20.097656 Z M 43.917969 37.460938 C 45.210938 37.441406 46.46875 37.214844 47.6875 36.78125 C 49.046875 36.3125 50.195312 35.53125 51.128906 34.441406 C 51.703125 33.804688 52.109375 33.074219 52.355469 32.253906 C 52.609375 31.222656 52.726562 30.171875 52.707031 29.105469 L 52.707031 27.574219 C 51.601562 27.3125 50.484375 27.105469 49.355469 26.964844 C 48.21875 26.820312 47.078125 26.746094 45.933594 26.746094 C 43.957031 26.597656 42.152344 27.085938 40.519531 28.210938 C 39.941406 28.71875 39.5 29.328125 39.199219 30.039062 C 38.894531 30.746094 38.757812 31.484375 38.789062 32.253906 C 38.738281 32.960938 38.828125 33.648438 39.058594 34.316406 C 39.292969 34.984375 39.648438 35.582031 40.125 36.105469 C 40.644531 36.570312 41.230469 36.921875 41.886719 37.15625 C 42.542969 37.394531 43.222656 37.492188 43.917969 37.460938 Z M 73.179688 41.394531 C 72.667969 41.441406 72.203125 41.324219 71.773438 41.046875 C 71.378906 40.648438 71.125 40.171875 71.007812 39.625 L 62.480469 11.503906 C 62.316406 11.027344 62.207031 10.539062 62.152344 10.039062 C 62.132812 9.914062 62.144531 9.792969 62.183594 9.675781 C 62.222656 9.554688 62.285156 9.453125 62.375 9.363281 C 62.464844 9.277344 62.566406 9.210938 62.6875 9.171875 C 62.808594 9.132812 62.929688 9.125 63.050781 9.144531 L 66.625 9.144531 C 67.140625 9.089844 67.617188 9.207031 68.050781 9.492188 C 68.417969 9.902344 68.660156 10.375 68.773438 10.914062 L 74.886719 34.964844 L 80.5625 10.914062 C 80.652344 10.371094 80.894531 9.902344 81.289062 9.515625 C 81.738281 9.238281 82.226562 9.121094 82.753906 9.164062 L 85.691406 9.164062 C 86.21875 9.121094 86.710938 9.238281 87.160156 9.515625 C 87.550781 9.914062 87.785156 10.386719 87.863281 10.9375 L 93.582031 35.292969 L 99.894531 10.9375 C 100.011719 10.394531 100.261719 9.921875 100.640625 9.515625 C 101.074219 9.230469 101.546875 9.113281 102.066406 9.164062 L 105.441406 9.164062 C 105.5625 9.144531 105.6875 9.15625 105.804688 9.195312 C 105.925781 9.234375 106.027344 9.296875 106.117188 9.386719 C 106.207031 9.476562 106.269531 9.578125 106.308594 9.699219 C 106.347656 9.816406 106.359375 9.9375 106.339844 10.0625 C 106.355469 10.25 106.355469 10.441406 106.339844 10.628906 C 106.269531 10.933594 106.179688 11.234375 106.074219 11.527344 L 97.308594 39.644531 C 97.195312 40.195312 96.9375 40.667969 96.542969 41.066406 C 96.113281 41.347656 95.648438 41.464844 95.140625 41.417969 L 91.9375 41.417969 C 91.402344 41.472656 90.914062 41.347656 90.46875 41.046875 C 90.085938 40.628906 89.851562 40.140625 89.769531 39.582031 L 84.09375 16.160156 L 78.480469 39.558594 C 78.398438 40.117188 78.164062 40.605469 77.78125 41.023438 C 77.335938 41.328125 76.847656 41.449219 76.3125 41.394531 Z M 119.992188 42.355469 C 118.097656 42.359375 116.226562 42.148438 114.382812 41.722656 C 112.910156 41.429688 111.507812 40.941406 110.175781 40.257812 C 109.765625 40.085938 109.441406 39.8125 109.195312 39.445312 C 108.953125 39.074219 108.832031 38.667969 108.835938 38.222656 L 108.835938 36.386719 C 108.835938 35.628906 109.113281 35.25 109.671875 35.25 C 109.90625 35.253906 110.128906 35.296875 110.347656 35.382812 L 111.269531 35.753906 C 112.558594 36.324219 113.898438 36.746094 115.28125 37.023438 C 116.726562 37.316406 118.1875 37.464844 119.664062 37.460938 C 121.554688 37.570312 123.332031 37.171875 124.988281 36.257812 C 125.59375 35.898438 126.066406 35.410156 126.402344 34.796875 C 126.742188 34.183594 126.898438 33.523438 126.875 32.824219 C 126.902344 31.839844 126.574219 30.996094 125.890625 30.289062 C 124.765625 29.351562 123.496094 28.707031 122.074219 28.363281 L 116.792969 26.703125 C 114.515625 26.070312 112.625 24.84375 111.117188 23.027344 C 109.910156 21.476562 109.300781 19.722656 109.296875 17.757812 C 109.265625 16.324219 109.59375 14.972656 110.285156 13.710938 C 110.945312 12.535156 111.816406 11.535156 112.890625 10.71875 C 114.019531 9.863281 115.261719 9.234375 116.617188 8.835938 C 118.113281 8.40625 119.640625 8.195312 121.199219 8.203125 C 122.019531 8.203125 122.839844 8.253906 123.652344 8.355469 C 124.484375 8.457031 125.273438 8.597656 126.019531 8.769531 C 126.765625 8.945312 127.460938 9.136719 128.101562 9.339844 C 128.632812 9.503906 129.144531 9.71875 129.636719 9.972656 C 130.054688 10.199219 130.414062 10.5 130.710938 10.871094 C 130.949219 11.238281 131.058594 11.636719 131.039062 12.074219 L 131.039062 13.800781 C 131.039062 14.558594 130.761719 14.9375 130.207031 14.9375 C 129.710938 14.882812 129.242188 14.734375 128.804688 14.5 C 126.566406 13.53125 124.230469 13.0625 121.789062 13.101562 C 120.082031 13.011719 118.46875 13.355469 116.945312 14.128906 C 116.375 14.460938 115.933594 14.917969 115.621094 15.5 C 115.308594 16.085938 115.175781 16.707031 115.214844 17.363281 C 115.191406 18.382812 115.550781 19.242188 116.289062 19.945312 C 117.484375 20.898438 118.820312 21.570312 120.300781 21.957031 L 125.472656 23.507812 C 127.714844 24.089844 129.59375 25.257812 131.105469 27.007812 C 132.300781 28.554688 132.871094 30.304688 132.816406 32.253906 C 132.835938 33.738281 132.511719 35.144531 131.851562 36.476562 C 131.203125 37.742188 130.320312 38.8125 129.199219 39.691406 C 127.980469 40.628906 126.628906 41.308594 125.144531 41.722656 C 123.457031 42.183594 121.742188 42.394531 119.992188 42.355469 Z M 119.992188 42.355469 " fill-opacity="1" fill-rule="nonzero"/></g><g clip-path="url(#id6)"><path fill="#ff9900" d="M 126.875 60.265625 C 114.886719 69.097656 97.484375 73.800781 82.625 73.800781 C 77.65625 73.832031 72.726562 73.410156 67.835938 72.527344 C 62.945312 71.648438 58.179688 70.328125 53.535156 68.5625 C 48.890625 66.800781 44.449219 64.625 40.207031 62.039062 C 35.96875 59.453125 32.003906 56.5 28.3125 53.179688 C 27.195312 52.175781 28.183594 50.796875 29.539062 51.5625 C 33.652344 53.910156 37.898438 55.980469 42.28125 57.773438 C 46.664062 59.570312 51.144531 61.074219 55.722656 62.285156 C 60.300781 63.496094 64.9375 64.410156 69.636719 65.019531 C 74.332031 65.628906 79.050781 65.933594 83.785156 65.929688 C 90.890625 65.890625 97.921875 65.160156 104.882812 63.734375 C 111.84375 62.3125 118.597656 60.222656 125.144531 57.464844 C 127.160156 56.613281 128.871094 58.800781 126.875 60.265625 Z M 126.875 60.265625 " fill-opacity="1" fill-rule="evenodd"/></g><g clip-path="url(#id7)"><path fill="#ff9900" d="M 131.871094 54.582031 C 130.339844 52.613281 121.722656 53.660156 117.867188 54.121094 C 116.707031 54.253906 116.507812 53.246094 117.558594 52.503906 C 124.421875 47.691406 135.6875 49.070312 136.980469 50.6875 C 138.273438 52.304688 136.628906 63.566406 130.207031 68.945312 C 129.21875 69.777344 128.277344 69.339844 128.714844 68.246094 C 130.164062 64.617188 133.40625 56.546875 131.871094 54.582031 Z M 131.871094 54.582031 " fill-opacity="1" fill-rule="evenodd"/></g></svg>